<svg id="Camada_1" data-name="Camada 1" xmlns="http://www.w3.org/2000/svg" viewBox="0 0 238.75 266"><defs><style>.cls-1{font-size:48.26px;font-family:Gilroy-ExtraBold, Gilroy;font-weight:800;}</style></defs><title>Sem título-1</title><path d="M257.57,110.78A15.54,15.54,0,0,0,235,103.52h0A20.33,20.33,0,0,0,227,128.74a74.59,74.59,0,0,1,5.25,27.89,83.82,83.82,0,1,1-83.81-83.82h2.08c2.26.13,3.94-7.76,3.73-17.53v-.07c-.21-9.78-2-17.86-4-18h-1.82A119.38,119.38,0,1,0,267.78,156.63C267.78,133.87,257.57,110.78,257.57,110.78Z" transform="translate(-29.03 -10)"/><path d="M146.42,10l34.49,39.29a13.68,13.68,0,0,1-1.25,19.25L140.37,103" transform="translate(-29.03 -10)"/><text class="cls-1" transform="translate(89.89 170.87)">2x</text></svg>